<?xml version="1.0" encoding="utf-8"?>
<!-- Generator: Adobe Illustrator 17.1.0, SVG Export Plug-In . SVG Version: 6.00 Build 0)  -->
<svg version="1.2" baseProfile="tiny" id="圖層_1"
	 xmlns="http://www.w3.org/2000/svg" xmlns:xlink="http://www.w3.org/1999/xlink" x="0px" y="0px" viewBox="0 0 55 60"
	 xml:space="preserve">
<g>
	<rect x="30.7" y="40.2" transform="matrix(0.3208 0.9472 -0.9472 0.3208 71.0466 1.2326)" width="7.8" height="19.9"/>
	<path d="M29.7,19.7c-0.4-3.9-6.9-3.2-6.2,0.4c-0.7-4-5.7-3.3-6.3,0c-1-2.4-5.1-13.2-5.3-13.9c-0.2-0.7-1-2.8-3.6-1.9
		c-2.2,0.7-1,3.6-1,3.6l6.3,20.7c0,0-2.3,3.9-2.4,5c-0.1,1.2,2.9,6.5,3.4,7c1.2,1.1,5.9,3.6,5.9,3.6l4.6,3.2l2.7-0.9L40,42.3
		c0,0,0,0,0,0s0.7-4.6,0.7-6.1l-4.3-15.8C34.8,16.1,29.3,15.6,29.7,19.7z"/>
</g>
</svg>
